<svg xmlns="http://www.w3.org/2000/svg" x="0px" y="0px"
width="48" height="48"
viewBox="0 0 172 172"
style=" fill:#000000;"><g fill="none" fill-rule="nonzero" stroke="none" stroke-width="none" stroke-linecap="none" stroke-linejoin="none" stroke-miterlimit="10" stroke-dasharray="" stroke-dashoffset="0" font-family="none" font-weight="none" font-size="none" text-anchor="none" style="mix-blend-mode: normal"><path d="M0,172v-172h172v172z" fill="none" stroke="none" stroke-width="1" stroke-linecap="butt" stroke-linejoin="miter"></path><g stroke="#000000" stroke-width="5.375" stroke-linejoin="round"><path d="M45.6875,83.3125c-20.32287,3.54212 -35.81094,24.65244 -37.60619,50.5035c-0.30638,4.44244 3.04494,8.29362 7.48469,8.60269c0.19081,0.01344 0.38163,0.01881 0.56706,0.01881c4.20056,0 7.74,-3.25188 8.03563,-7.5035c1.28194,-18.46312 10.94619,-32.15862 23.8435,-35.06919c13.80031,-3.11481 27.23781,2.26019 27.23781,2.26019c0,0 -10.00825,-22.22294 -29.5625,-18.8125z" fill="#ffb907" stroke-linecap="round"></path><path d="M149.15625,94.0625l-3.18469,-5.82112c-0.71219,-1.30344 -1.7845,-2.37575 -3.08794,-3.08794l-5.82112,-3.18469l5.82112,-3.18469c1.30344,-0.71219 2.37575,-1.7845 3.08794,-3.08794l3.18469,-5.82112l3.18469,5.82112c0.71219,1.30344 1.7845,2.37575 3.08794,3.08794l5.82112,3.18469l-5.82112,3.18469c-1.30344,0.71219 -2.37575,1.7845 -3.08794,3.08794z" fill="#ff0b4e" stroke-linecap="butt"></path><path d="M14.78125,88.6875l-3.18469,-5.82112c-0.71219,-1.30344 -1.7845,-2.37575 -3.08794,-3.08794l-5.82112,-3.18469l5.82113,-3.18469c1.30344,-0.71219 2.37575,-1.7845 3.08794,-3.08794l3.18469,-5.82112l3.18469,5.82112c0.71219,1.30344 1.7845,2.37575 3.08794,3.08794l5.82112,3.18469l-5.82113,3.18469c-1.30344,0.71219 -2.37575,1.7845 -3.08794,3.08794zM68.53394,26.875l-3.18469,-5.82113c-0.71219,-1.30344 -1.7845,-2.37575 -3.08794,-3.08794l-5.82113,-3.18469l5.82113,-3.18469c1.30344,-0.71219 2.37575,-1.7845 3.08794,-3.08794l3.18469,-5.82112l3.18469,5.82113c0.71219,1.30344 1.7845,2.37575 3.08794,3.08794l5.81844,3.18469l-5.82112,3.18469c-1.30344,0.71219 -2.37575,1.7845 -3.08794,3.08794zM119.59375,161.25l-3.18469,-5.82112c-0.71219,-1.30344 -1.7845,-2.37575 -3.08794,-3.08794l-5.82112,-3.18469l5.82112,-3.18469c1.30344,-0.71219 2.37575,-1.7845 3.08794,-3.08794l3.18469,-5.82112l3.18469,5.82112c0.71219,1.30344 1.7845,2.37575 3.08794,3.08794l5.82112,3.18469l-5.82112,3.18469c-1.30344,0.71219 -2.37575,1.7845 -3.08794,3.08794z" fill="#0696ff" stroke-linecap="butt"></path><path d="M52.40625,145.125l-3.18469,-5.82112c-0.71219,-1.30344 -1.7845,-2.37575 -3.08794,-3.08794l-5.82113,-3.18469l5.82113,-3.18469c1.30344,-0.71219 2.37575,-1.7845 3.08794,-3.08794l3.18469,-5.82112l3.18469,5.82112c0.71219,1.30344 1.7845,2.37575 3.08794,3.08794l5.82113,3.18469l-5.82113,3.18469c-1.30344,0.71219 -2.37575,1.7845 -3.08794,3.08794z" fill="#ffb907" stroke-linecap="round"></path><path d="M36.28394,24.26275c-18.86625,0 -29.37975,17.99819 -29.81781,18.75069c-2.23062,3.83237 -0.93256,8.72094 2.88637,10.97306c3.82431,2.24944 8.75856,0.97288 11.03219,-2.83531c0.06181,-0.10481 6.45269,-10.61025 16.15456,-10.76613c0.07256,0 0.14781,0 0.22037,0c16.98769,0 35.80019,32.17744 35.80019,32.17744v0c0,0 -2.6875,-48.29975 -36.27587,-48.29975z" fill="#ff0b4e" stroke-linecap="butt"></path><path d="M167.06306,45.47519c-5.45025,-5.67062 -11.53744,-9.00312 -18.07344,-10.00019c-38.80212,-5.9125 -49.55212,50.525 -49.55212,50.525v0c0,0 26.875,-37.625 47.19787,-34.572c2.924,0.43806 5.88563,2.18763 8.80156,5.22181c3.09062,3.21156 8.18881,3.30831 11.40037,0.22306c3.21156,-3.08525 3.311,-8.18881 0.22575,-11.39769z" fill="#0696ff" stroke-linecap="butt"></path><path d="M120.09094,9.81744c-4.65475,-3.44806 -9.45731,-5.34006 -14.00456,-4.18981c-30.83638,7.80987 -17.39888,61.55988 -17.39888,61.55988c0,0 7.79375,-42.90325 19.59456,-45.59075c0.1935,0.01344 0.96481,0.258 2.2145,1.17981c3.57706,2.6445 8.62956,1.90006 11.27675,-1.68238c2.65256,-3.57706 1.89738,-8.62688 -1.68237,-11.27675z" fill="#ffb907" stroke-linecap="round"></path><path d="M86,112.875c-3.09331,7.03319 -8.0625,32.25 -8.0625,48.375c0,4.42363 3.63887,8.0625 8.0625,8.0625c4.45319,0 8.0625,-3.60931 8.0625,-8.0625c0,-16.125 -6.0845,-38.0765 -8.0625,-48.375z" fill="#ff0b4e" stroke-linecap="butt"></path><path d="M158.47381,143.93981c-4.22744,-28.43644 -19.01944,-49.80475 -36.92894,-49.80475c-16.73237,0 -22.10737,16.05244 -22.10737,16.05244c0,0 10.52425,-0.71487 20.88994,0.02419c8.25063,0.62619 18.83669,13.49125 22.19606,36.0985c0.59663,4.00438 4.03663,6.88 7.96575,6.88c0.39237,0 0.7955,-0.02956 1.19594,-0.08869c4.40481,-0.65575 7.44438,-4.75688 6.78863,-9.16169z" fill="#ffb907" stroke-linecap="round"></path></g></g></svg>